<svg xmlns="http://www.w3.org/2000/svg" id="emoji" viewBox="0 0 72 72"><g id="color"><polygon fill="#FCEA2B" stroke="none" points="66 36 55.324 41.182 61.982 51.006 50.142 50.142 51.006 61.982 41.181 55.324 36 66 30.818 55.324 20.994 61.982 21.858 50.142 10.018 51.006 16.676 41.181 6 36 16.677 30.818 10.018 20.994 21.858 21.858 20.994 10.018 30.819 16.676 36 6 41.182 16.677 51.006 10.018 50.142 21.858 61.982 20.994 55.324 30.819"/></g><g id="line"><circle cx="36" cy="35.95" r="19.828" fill="none" stroke="#000" stroke-linecap="round" stroke-linejoin="round" stroke-miterlimit="10" stroke-width="2"/><polygon fill="none" stroke="#000" stroke-linecap="round" stroke-linejoin="round" stroke-miterlimit="10" stroke-width="2" points="66 36 55.324 41.182 61.982 51.006 50.142 50.142 51.006 61.982 41.181 55.324 36 66 30.818 55.324 20.994 61.982 21.858 50.142 10.018 51.006 16.676 41.181 6 36 16.677 30.818 10.018 20.994 21.858 21.858 20.994 10.018 30.819 16.676 36 6 41.182 16.677 51.006 10.018 50.142 21.858 61.982 20.994 55.324 30.819"/></g></svg>